# xmcd
#
# Track frame offsets:
#	150
#	22670
#	43573
#	76145
#	94493
#	130185
#	149710
#	163353
#	176128
#	196808
#	222625
#	240655
#	257655
#	283903
#	304873
#
# Disc length: 4376 seconds
#
# Revision: 0
# Processed by: cddbd v1.4PL0 Copyright (c) Steve Scherf et al.
# Submitted via: dBpowerAMP V4.0
#
DISCID=e011160f
DTITLE=Browning/Wallace - One More Mile
DYEAR=1900
DGENRE=Blues
TTITLE0=Stand Your Ground
TTITLE1=God Is Good
TTITLE2=One More Mile
TTITLE3=What Love Can Do
TTITLE4=Higher Ground-Funky Town
TTITLE5=Sweet Ride
TTITLE6=Everybody Needa Little Help
TTITLE7=One Mo' Day
TTITLE8=Standin' In Your Shadow
TTITLE9=Cover Me
TTITLE10=No Stones In My Pathway
TTITLE11=Good Thang
TTITLE12=Have Mercy
TTITLE13=Good Friend
TTITLE14=Waymaker
EXTD=
EXTT0=
EXTT1=
EXTT2=
EXTT3=
EXTT4=
EXTT5=
EXTT6=
EXTT7=
EXTT8=
EXTT9=
EXTT10=
EXTT11=
EXTT12=
EXTT13=
EXTT14=
PLAYORDER=
